<svg id="svg" version="1.1" xmlns="http://www.w3.org/2000/svg" xmlns:xlink="http://www.w3.org/1999/xlink" width="400" height="400" viewBox="0, 0, 400,400"><g id="svgg"><path id="path0" d="M194.000 15.489 C 194.000 15.843,193.507 15.889,187.930 16.064 C 186.021 16.124,184.547 16.314,184.653 16.486 C 184.760 16.659,184.657 16.800,184.424 16.800 C 184.191 16.800,183.997 16.575,183.994 16.300 C 183.990 15.955,183.897 15.936,183.694 16.239 C 183.352 16.750,182.000 16.825,182.000 16.333 C 182.000 16.150,181.809 16.000,181.576 16.000 C 181.343 16.000,181.263 16.178,181.397 16.395 C 181.534 16.616,181.385 16.693,181.061 16.568 C 180.742 16.446,180.383 16.504,180.264 16.697 C 180.144 16.891,179.496 17.011,178.823 16.964 C 178.121 16.916,177.597 17.076,177.594 17.340 C 177.590 17.594,177.414 17.531,177.200 17.200 C 176.987 16.870,176.809 16.800,176.806 17.045 C 176.803 17.296,176.387 17.410,175.847 17.307 C 175.323 17.207,174.772 17.322,174.623 17.563 C 174.455 17.835,173.752 17.906,172.776 17.750 C 171.647 17.569,171.200 17.640,171.200 17.998 C 171.200 18.375,171.066 18.387,170.653 18.044 C 170.237 17.699,169.987 17.734,169.607 18.191 C 169.314 18.545,168.755 18.703,168.250 18.577 C 167.777 18.458,166.763 18.613,165.995 18.921 C 165.228 19.229,163.835 19.424,162.900 19.355 C 161.965 19.286,161.200 19.402,161.200 19.614 C 161.200 19.827,160.795 20.003,160.300 20.006 C 159.805 20.009,158.653 20.272,157.739 20.590 C 156.826 20.909,155.696 21.095,155.228 21.005 C 154.759 20.915,154.483 21.011,154.613 21.221 C 154.742 21.429,154.312 21.600,153.657 21.600 C 153.002 21.600,151.626 21.960,150.600 22.400 C 149.574 22.840,148.319 23.200,147.813 23.200 C 147.306 23.200,146.389 23.461,145.774 23.780 C 145.160 24.098,144.509 24.268,144.329 24.156 C 144.148 24.044,144.000 24.109,144.000 24.301 C 144.000 24.686,140.093 25.817,139.300 25.663 C 139.025 25.609,138.800 25.753,138.800 25.982 C 138.800 26.212,138.337 26.400,137.771 26.400 C 137.206 26.400,136.471 26.672,136.139 27.004 C 135.807 27.336,135.370 27.505,135.168 27.380 C 134.965 27.255,134.800 27.343,134.800 27.576 C 134.800 27.809,134.350 28.000,133.800 28.000 C 133.250 28.000,132.800 28.178,132.800 28.396 C 132.800 28.613,132.395 28.761,131.900 28.724 C 130.798 28.641,127.107 30.561,127.510 31.007 C 127.669 31.184,127.620 31.231,127.400 31.111 C 127.180 30.992,126.550 31.080,126.000 31.307 C 125.450 31.535,124.820 31.748,124.600 31.782 C 123.789 31.907,121.782 32.873,121.156 33.440 C 120.800 33.762,120.107 34.102,119.614 34.197 C 119.121 34.292,118.449 34.593,118.120 34.866 C 117.791 35.139,117.144 35.420,116.682 35.491 C 116.220 35.561,115.510 35.975,115.105 36.410 C 114.700 36.844,113.915 37.200,113.361 37.200 C 112.791 37.200,112.460 37.374,112.600 37.600 C 112.736 37.820,112.589 38.000,112.273 38.000 C 111.957 38.000,111.476 38.268,111.204 38.596 C 110.932 38.923,110.550 39.093,110.355 38.972 C 110.160 38.851,110.000 38.943,110.000 39.176 C 110.000 39.409,109.730 39.600,109.400 39.600 C 109.070 39.600,108.800 39.780,108.800 40.000 C 108.800 40.220,108.468 40.400,108.062 40.400 C 107.656 40.400,106.998 40.760,106.600 41.200 C 106.202 41.640,105.621 42.000,105.309 42.000 C 104.998 42.000,104.471 42.272,104.139 42.604 C 103.807 42.936,103.379 43.111,103.188 42.992 C 102.997 42.874,102.645 43.143,102.406 43.589 C 102.167 44.035,101.714 44.400,101.400 44.400 C 101.085 44.400,100.192 44.959,99.414 45.641 C 98.636 46.324,98.000 46.758,98.000 46.606 C 98.000 46.454,97.461 46.782,96.802 47.337 C 96.143 47.891,95.243 48.459,94.802 48.599 C 94.361 48.739,94.000 49.022,94.000 49.227 C 94.000 49.432,93.820 49.600,93.600 49.600 C 93.380 49.600,92.870 49.915,92.467 50.300 C 92.064 50.685,90.884 51.496,89.845 52.103 C 88.807 52.710,88.067 53.385,88.202 53.603 C 88.337 53.821,88.207 54.000,87.913 54.000 C 87.619 54.000,86.787 54.540,86.064 55.200 C 85.342 55.860,84.582 56.400,84.375 56.400 C 84.169 56.400,84.000 56.670,84.000 57.000 C 84.000 57.330,83.770 57.600,83.489 57.600 C 83.208 57.600,82.409 58.120,81.712 58.756 C 81.016 59.392,80.346 59.812,80.223 59.690 C 80.100 59.567,80.000 59.777,80.000 60.157 C 80.000 60.537,79.819 60.735,79.597 60.598 C 79.376 60.461,79.086 60.631,78.954 60.975 C 78.822 61.319,78.474 61.600,78.180 61.600 C 77.886 61.600,77.326 62.140,76.936 62.800 C 76.546 63.460,76.019 64.000,75.764 64.000 C 75.211 64.000,72.000 66.868,72.000 67.363 C 72.000 67.553,71.505 68.159,70.900 68.710 C 67.174 72.105,66.106 73.173,66.273 73.340 C 66.376 73.443,66.084 73.646,65.624 73.792 C 65.165 73.938,64.892 74.225,65.018 74.429 C 65.144 74.633,64.967 74.800,64.624 74.800 C 64.281 74.800,64.000 74.952,64.000 75.139 C 64.000 75.325,63.685 75.856,63.300 76.319 C 62.915 76.781,62.240 77.617,61.800 78.176 C 59.796 80.722,59.600 80.916,59.591 80.361 C 59.586 80.053,59.275 80.430,58.899 81.200 C 58.284 82.463,57.068 84.022,55.100 86.071 C 54.715 86.472,54.400 86.955,54.400 87.144 C 54.400 87.333,53.950 87.826,53.400 88.239 C 52.849 88.652,52.205 89.578,51.969 90.295 C 51.732 91.013,51.271 91.600,50.945 91.600 C 50.619 91.600,50.465 91.781,50.602 92.003 C 50.739 92.224,50.569 92.514,50.225 92.646 C 49.881 92.778,49.600 93.136,49.600 93.443 C 49.600 93.749,49.423 94.000,49.208 94.000 C 48.992 94.000,48.702 94.450,48.564 95.000 C 48.426 95.550,48.173 96.000,48.002 96.000 C 47.831 96.000,47.392 96.630,47.027 97.400 C 46.661 98.170,46.224 98.800,46.055 98.800 C 45.886 98.800,45.448 99.430,45.081 100.200 C 44.713 100.970,44.230 101.600,44.006 101.600 C 43.783 101.600,43.600 101.932,43.600 102.338 C 43.600 102.744,43.240 103.402,42.800 103.800 C 42.360 104.198,42.000 104.766,42.000 105.062 C 42.000 105.358,41.856 105.600,41.680 105.600 C 41.505 105.600,41.134 106.228,40.856 106.996 C 40.578 107.763,40.047 108.696,39.676 109.067 C 39.304 109.439,38.978 109.891,38.950 110.071 C 38.923 110.252,38.877 110.591,38.850 110.824 C 38.823 111.057,38.620 111.136,38.400 111.000 C 38.180 110.864,38.000 111.036,38.000 111.382 C 38.000 111.728,37.832 112.323,37.626 112.705 C 37.421 113.087,37.022 113.972,36.741 114.671 C 36.460 115.370,36.084 115.852,35.905 115.741 C 35.726 115.631,35.606 115.689,35.637 115.870 C 35.806 116.843,35.553 117.618,35.148 117.368 C 34.875 117.199,34.769 117.306,34.880 117.640 C 35.064 118.191,32.614 123.205,31.958 123.620 C 31.767 123.741,31.552 124.374,31.481 125.025 C 31.328 126.424,30.334 128.800,29.902 128.800 C 29.736 128.800,29.600 129.124,29.600 129.520 C 29.600 129.916,29.384 130.456,29.120 130.720 C 28.856 130.984,28.771 131.200,28.930 131.200 C 29.090 131.200,28.946 131.731,28.610 132.380 C 28.275 133.029,28.000 134.041,28.000 134.629 C 28.000 135.462,27.885 135.602,27.479 135.265 C 27.068 134.925,26.949 135.129,26.918 136.227 C 26.896 136.993,26.591 138.060,26.239 138.596 C 25.888 139.133,25.600 139.938,25.600 140.386 C 25.600 140.834,25.465 141.200,25.300 141.201 C 25.135 141.201,24.959 141.785,24.908 142.498 C 24.858 143.211,24.633 143.856,24.408 143.931 C 24.184 144.005,24.000 144.602,24.000 145.257 C 24.000 145.912,23.865 146.364,23.700 146.263 C 23.535 146.162,23.380 146.610,23.356 147.260 C 23.317 148.329,23.004 149.230,21.953 151.295 C 21.759 151.677,21.598 152.487,21.596 153.095 C 21.593 153.703,21.311 155.100,20.968 156.200 C 20.362 158.147,19.933 160.281,19.863 161.700 C 19.844 162.085,19.674 162.400,19.484 162.400 C 19.295 162.400,19.172 162.895,19.212 163.500 C 19.320 165.133,19.235 165.669,18.900 165.462 C 18.735 165.360,18.583 165.844,18.562 166.538 C 18.502 168.532,18.248 170.000,17.964 170.000 C 17.820 170.000,17.736 171.098,17.778 172.440 C 17.829 174.053,17.689 174.944,17.367 175.068 C 16.850 175.267,16.830 175.893,17.318 176.672 C 17.480 176.932,17.418 177.265,17.181 177.412 C 16.943 177.559,16.798 178.157,16.859 178.740 C 16.920 179.323,16.832 180.025,16.662 180.300 C 16.492 180.575,16.460 180.800,16.590 180.800 C 16.721 180.800,16.635 181.160,16.400 181.600 C 16.165 182.040,16.128 182.400,16.319 182.400 C 16.510 182.400,16.667 182.670,16.667 183.000 C 16.667 183.330,16.549 183.600,16.405 183.600 C 16.261 183.600,16.180 185.265,16.225 187.300 C 16.270 189.335,16.156 191.188,15.972 191.418 C 15.788 191.648,15.685 193.032,15.743 194.494 C 15.800 195.957,15.747 197.091,15.624 197.015 C 15.501 196.939,15.433 198.614,15.473 200.738 C 15.513 202.862,15.574 204.600,15.609 204.600 C 15.644 204.600,15.701 205.410,15.736 206.400 C 15.772 207.390,15.914 208.380,16.052 208.600 C 16.191 208.820,16.259 210.161,16.203 211.580 C 16.147 213.000,16.246 214.665,16.423 215.280 C 16.600 215.896,16.622 216.400,16.472 216.401 C 16.322 216.401,16.181 216.936,16.158 217.589 C 16.133 218.294,16.280 218.674,16.520 218.526 C 16.755 218.381,16.800 218.477,16.627 218.756 C 16.464 219.019,16.484 219.452,16.672 219.718 C 16.859 219.983,17.009 220.965,17.006 221.900 C 17.002 222.835,17.156 223.600,17.349 223.600 C 17.541 223.600,17.474 223.870,17.200 224.200 C 16.799 224.684,16.808 224.800,17.251 224.800 C 17.651 224.800,17.797 225.397,17.788 227.000 C 17.782 228.210,17.872 229.200,17.988 229.201 C 18.206 229.202,18.439 231.084,18.542 233.666 C 18.574 234.472,18.683 235.049,18.785 234.948 C 18.972 234.761,19.917 238.514,20.175 240.470 C 20.253 241.059,20.458 241.770,20.631 242.050 C 20.804 242.330,20.942 243.108,20.938 243.779 C 20.934 244.451,21.064 245.090,21.226 245.200 C 21.389 245.310,21.585 246.030,21.661 246.800 C 21.738 247.570,21.934 248.300,22.098 248.422 C 22.262 248.545,22.436 249.130,22.485 249.722 C 22.534 250.315,22.715 250.800,22.887 250.800 C 23.059 250.800,23.200 251.124,23.200 251.520 C 23.200 251.916,23.425 252.482,23.700 252.779 C 24.100 253.210,24.100 253.261,23.700 253.035 C 23.098 252.695,23.034 253.274,23.611 253.851 C 23.837 254.077,24.062 254.815,24.111 255.492 C 24.160 256.168,24.335 256.639,24.500 256.537 C 24.665 256.436,24.800 256.813,24.800 257.376 C 24.800 257.939,24.980 258.400,25.200 258.400 C 25.420 258.400,25.600 258.839,25.600 259.376 C 25.600 259.913,25.792 260.472,26.027 260.617 C 26.262 260.762,26.358 261.133,26.240 261.440 C 26.122 261.748,26.199 262.000,26.413 262.000 C 26.626 262.000,26.800 262.326,26.800 262.724 C 26.800 263.121,27.064 263.796,27.387 264.224 C 27.710 264.651,27.980 265.495,27.987 266.100 C 27.994 266.705,28.180 267.200,28.400 267.200 C 28.620 267.200,28.800 267.569,28.800 268.020 C 28.800 268.471,29.075 269.371,29.410 270.020 C 29.746 270.669,29.881 271.206,29.710 271.213 C 29.540 271.220,29.712 271.462,30.093 271.752 C 30.474 272.041,30.843 272.621,30.913 273.039 C 30.982 273.458,31.238 274.160,31.480 274.600 C 31.723 275.040,31.943 275.534,31.970 275.698 C 32.281 277.585,32.566 278.355,32.929 278.284 C 33.168 278.238,33.378 278.380,33.396 278.600 C 33.414 278.820,33.641 279.381,33.900 279.847 C 34.160 280.313,34.258 280.808,34.119 280.947 C 33.980 281.086,34.077 281.200,34.333 281.200 C 34.590 281.200,34.800 281.470,34.800 281.800 C 34.800 282.130,34.980 282.400,35.200 282.400 C 35.420 282.400,35.600 282.745,35.600 283.167 C 35.600 283.588,35.788 283.996,36.018 284.073 C 36.248 284.149,36.466 284.614,36.503 285.106 C 36.540 285.598,36.668 286.000,36.787 286.000 C 37.088 286.000,38.201 288.524,38.079 288.930 C 38.025 289.111,38.139 289.161,38.333 289.041 C 38.527 288.921,39.110 289.673,39.629 290.712 C 40.147 291.750,41.244 293.611,42.065 294.847 C 42.886 296.083,43.680 297.579,43.829 298.171 C 43.991 298.817,44.304 299.169,44.611 299.051 C 44.953 298.920,45.089 299.167,45.021 299.792 C 44.944 300.490,45.074 300.670,45.528 300.495 C 45.979 300.322,46.070 300.442,45.874 300.951 C 45.728 301.331,45.761 301.548,45.946 301.433 C 46.245 301.248,47.297 302.922,47.371 303.700 C 47.387 303.865,47.531 303.955,47.692 303.900 C 47.853 303.845,48.348 304.513,48.792 305.384 C 49.236 306.255,49.873 307.121,50.208 307.308 C 50.543 307.496,50.720 307.805,50.603 307.996 C 50.485 308.186,50.733 308.452,51.154 308.586 C 51.576 308.719,52.043 309.316,52.192 309.912 C 52.525 311.236,53.170 312.066,53.641 311.775 C 53.833 311.656,53.872 311.867,53.727 312.245 C 53.549 312.711,53.615 312.838,53.932 312.642 C 54.207 312.472,54.400 312.592,54.400 312.934 C 54.400 313.253,54.670 313.618,55.000 313.745 C 55.330 313.871,55.600 314.207,55.600 314.490 C 55.600 314.774,56.230 315.584,57.000 316.290 C 57.770 316.997,58.400 317.851,58.400 318.188 C 58.400 318.524,58.542 318.800,58.717 318.800 C 59.370 318.800,62.301 321.917,63.727 324.127 C 64.673 325.594,65.687 326.594,66.572 326.934 C 67.043 327.115,67.194 327.438,67.020 327.891 C 66.876 328.268,66.876 328.457,67.021 328.312 C 67.324 328.009,67.623 328.241,70.568 331.071 C 71.754 332.210,72.638 333.229,72.532 333.335 C 72.426 333.440,72.710 333.644,73.162 333.788 C 73.614 333.931,74.286 334.561,74.656 335.187 C 75.039 335.836,75.559 336.237,75.864 336.120 C 76.159 336.007,76.401 336.159,76.403 336.457 C 76.404 336.756,77.079 337.443,77.903 337.984 C 79.689 339.159,80.800 340.221,80.800 340.756 C 80.800 340.971,81.191 341.270,81.669 341.422 C 82.688 341.745,82.824 341.842,85.245 343.975 C 86.259 344.869,87.250 345.600,87.447 345.600 C 87.644 345.600,88.026 346.101,88.297 346.712 C 88.624 347.452,89.125 347.852,89.790 347.907 C 90.794 347.991,91.131 348.223,93.662 350.582 C 94.414 351.283,95.248 351.784,95.515 351.695 C 95.782 351.606,96.000 351.728,96.000 351.967 C 96.000 352.205,96.270 352.400,96.600 352.400 C 96.930 352.400,97.155 352.601,97.100 352.847 C 97.045 353.093,97.347 353.351,97.770 353.422 C 98.194 353.492,98.698 353.831,98.890 354.175 C 99.082 354.519,99.591 354.800,100.020 354.800 C 100.449 354.800,100.800 354.980,100.800 355.200 C 100.800 355.420,101.042 355.600,101.338 355.600 C 101.634 355.600,102.202 355.960,102.600 356.400 C 102.998 356.840,103.566 357.200,103.862 357.200 C 104.158 357.200,104.400 357.380,104.400 357.600 C 104.400 357.820,104.681 358.000,105.024 358.000 C 105.367 358.000,105.533 358.184,105.394 358.410 C 105.255 358.635,105.289 358.779,105.470 358.729 C 106.067 358.564,108.762 359.738,108.555 360.073 C 108.444 360.253,108.657 360.400,109.029 360.400 C 109.402 360.400,109.997 360.715,110.353 361.100 C 110.709 361.485,111.180 361.805,111.400 361.812 C 112.027 361.831,115.600 363.657,115.600 363.959 C 115.600 364.108,115.980 364.258,116.445 364.293 C 116.909 364.328,117.599 364.637,117.976 364.979 C 118.354 365.320,118.795 365.600,118.957 365.600 C 119.612 365.600,123.562 367.738,123.398 368.004 C 123.301 368.161,123.621 368.263,124.110 368.230 C 124.600 368.197,125.568 368.479,126.262 368.857 C 126.956 369.234,127.631 369.436,127.762 369.305 C 127.893 369.174,128.000 369.296,128.000 369.576 C 128.000 369.863,128.260 369.986,128.595 369.857 C 128.939 369.725,129.150 369.834,129.095 370.114 C 129.039 370.402,129.407 370.577,130.000 370.543 C 130.550 370.511,131.106 370.655,131.236 370.863 C 131.366 371.070,131.841 371.268,132.292 371.302 C 132.743 371.336,133.031 371.574,132.933 371.831 C 132.814 372.140,133.100 372.232,133.777 372.102 C 134.380 371.987,134.800 372.090,134.800 372.353 C 134.800 372.599,134.935 372.770,135.100 372.734 C 135.545 372.637,137.684 373.249,138.600 373.736 C 139.040 373.970,139.760 374.215,140.200 374.281 C 140.640 374.348,141.360 374.561,141.800 374.755 C 142.240 374.950,143.410 375.342,144.400 375.626 C 145.390 375.911,146.380 376.267,146.600 376.417 C 146.820 376.566,147.681 376.794,148.512 376.921 C 149.344 377.049,150.539 377.410,151.169 377.724 C 151.798 378.038,152.737 378.268,153.256 378.236 C 153.775 378.203,154.316 378.342,154.458 378.544 C 154.600 378.745,155.320 378.931,156.058 378.955 C 156.796 378.980,157.510 379.151,157.645 379.335 C 157.780 379.519,158.759 379.750,159.822 379.850 C 160.885 379.949,161.945 380.165,162.177 380.330 C 162.410 380.495,163.140 380.687,163.800 380.756 C 164.460 380.825,165.090 380.998,165.200 381.141 C 165.389 381.385,165.809 381.437,168.524 381.552 C 169.142 381.579,169.561 381.740,169.456 381.910 C 169.350 382.081,170.339 382.202,171.652 382.180 C 172.965 382.158,174.133 382.292,174.247 382.477 C 174.362 382.662,174.623 382.709,174.828 382.583 C 175.032 382.456,175.200 382.498,175.200 382.676 C 175.200 382.854,175.965 383.017,176.900 383.038 C 179.064 383.087,181.920 383.504,182.487 383.854 C 182.749 384.015,182.809 383.939,182.638 383.662 C 182.458 383.370,182.656 383.200,183.176 383.200 C 183.629 383.200,184.000 383.342,184.000 383.517 C 184.000 383.691,185.395 383.812,187.100 383.786 C 190.361 383.737,191.700 383.914,191.426 384.357 C 191.207 384.713,192.912 384.625,193.520 384.249 C 193.784 384.086,194.000 384.154,194.000 384.400 C 194.000 384.646,194.188 384.731,194.417 384.589 C 194.842 384.327,205.150 384.263,207.475 384.508 C 208.176 384.582,208.673 384.518,208.579 384.367 C 208.296 383.908,209.800 383.685,212.595 383.771 C 214.052 383.816,215.309 383.748,215.388 383.619 C 215.467 383.491,216.537 383.418,217.766 383.458 C 218.995 383.498,220.000 383.399,220.000 383.238 C 220.000 383.077,220.653 382.997,221.450 383.060 C 222.248 383.123,223.238 382.994,223.650 382.773 C 224.202 382.478,224.402 382.508,224.406 382.886 C 224.410 383.202,224.526 383.246,224.706 383.000 C 224.868 382.780,225.630 382.538,226.400 382.463 C 227.170 382.387,227.986 382.173,228.213 381.986 C 228.441 381.798,228.884 381.805,229.200 382.000 C 229.516 382.195,229.959 382.202,230.187 382.015 C 230.414 381.828,231.661 381.563,232.957 381.426 C 234.253 381.289,235.497 381.064,235.720 380.926 C 235.943 380.788,236.735 380.698,237.479 380.726 C 238.264 380.755,238.732 380.614,238.593 380.388 C 238.460 380.173,238.852 379.998,239.476 379.996 C 240.094 379.993,241.439 379.737,242.463 379.426 C 243.488 379.115,244.407 378.940,244.504 379.037 C 244.601 379.135,245.180 378.955,245.790 378.639 C 246.400 378.322,247.147 378.158,247.450 378.274 C 247.752 378.391,248.000 378.286,248.000 378.043 C 248.000 377.793,248.697 377.600,249.600 377.600 C 250.480 377.600,251.200 377.458,251.200 377.285 C 251.200 377.112,251.785 376.926,252.500 376.872 C 253.215 376.819,253.860 376.600,253.933 376.387 C 254.007 376.174,254.466 376.000,254.953 376.000 C 255.441 376.000,256.011 375.835,256.220 375.633 C 256.429 375.432,256.960 375.207,257.400 375.133 C 257.840 375.060,258.297 374.871,258.416 374.713 C 258.534 374.555,259.209 374.382,259.916 374.328 C 260.622 374.274,261.200 374.088,261.200 373.915 C 261.200 373.742,261.635 373.600,262.167 373.600 C 262.698 373.600,263.194 373.417,263.269 373.193 C 263.343 372.970,263.982 372.714,264.688 372.624 C 265.394 372.535,266.473 372.209,267.086 371.900 C 267.699 371.592,268.800 371.038,269.532 370.669 C 270.265 370.301,271.191 370.000,271.590 370.000 C 271.988 370.000,272.419 369.728,272.546 369.396 C 272.673 369.064,272.918 368.833,273.089 368.882 C 273.615 369.034,277.253 367.509,280.200 365.903 C 281.740 365.064,283.810 364.007,284.800 363.556 C 285.790 363.104,286.913 362.569,287.295 362.367 C 287.677 362.165,288.292 362.000,288.661 362.000 C 289.031 362.000,289.214 361.881,289.069 361.735 C 288.743 361.409,290.909 359.939,292.800 359.202 C 293.570 358.903,294.913 358.104,295.785 357.429 C 296.657 356.753,297.212 356.470,297.019 356.800 C 296.827 357.130,297.140 356.905,297.715 356.300 C 298.291 355.695,298.938 355.200,299.152 355.200 C 299.367 355.200,299.792 354.951,300.097 354.646 C 300.401 354.342,301.404 353.708,302.325 353.238 C 303.246 352.768,304.000 352.207,304.000 351.992 C 304.000 351.776,304.192 351.600,304.427 351.600 C 304.893 351.600,307.718 349.585,307.934 349.098 C 308.008 348.931,308.233 348.897,308.434 349.021 C 308.635 349.145,308.800 349.062,308.800 348.835 C 308.800 348.609,309.524 348.092,310.408 347.686 C 311.292 347.281,311.908 346.842,311.777 346.710 C 311.494 346.428,314.419 344.364,314.783 344.589 C 314.920 344.674,315.385 344.216,315.816 343.573 C 316.247 342.929,316.836 342.402,317.124 342.401 C 317.412 342.401,317.536 342.220,317.400 342.000 C 317.264 341.780,317.404 341.600,317.711 341.600 C 318.018 341.600,318.890 340.908,319.650 340.061 C 320.410 339.215,321.235 338.450,321.485 338.361 C 321.734 338.273,322.762 337.425,323.769 336.478 C 324.776 335.531,325.600 334.856,325.600 334.978 C 325.600 335.100,325.960 334.840,326.400 334.400 C 326.840 333.960,327.200 333.454,327.200 333.275 C 327.200 333.097,327.785 332.525,328.500 332.005 C 329.215 331.485,329.944 330.821,330.120 330.530 C 330.296 330.238,330.711 330.000,331.043 330.000 C 331.376 330.000,331.536 329.820,331.400 329.600 C 331.264 329.380,331.331 329.200,331.549 329.200 C 331.768 329.200,332.061 328.837,332.202 328.394 C 332.343 327.951,332.598 327.675,332.769 327.781 C 332.940 327.886,333.317 327.529,333.607 326.986 C 333.898 326.444,334.405 326.000,334.734 326.000 C 335.064 326.000,335.220 325.886,335.081 325.747 C 334.942 325.608,335.381 324.978,336.056 324.347 C 336.732 323.716,337.167 323.200,337.024 323.200 C 336.881 323.200,337.177 322.782,337.682 322.272 C 338.187 321.762,338.959 320.860,339.398 320.268 C 339.837 319.676,340.515 319.091,340.904 318.967 C 341.293 318.843,341.517 318.590,341.402 318.403 C 341.287 318.217,341.464 317.793,341.796 317.461 C 342.128 317.129,342.400 316.741,342.400 316.600 C 342.400 316.282,343.694 314.962,343.871 315.100 C 344.162 315.326,344.913 315.180,344.677 314.944 C 344.370 314.636,345.629 312.400,346.110 312.400 C 346.295 312.400,346.339 312.225,346.207 312.012 C 346.075 311.798,346.419 311.510,346.970 311.372 C 347.522 311.233,347.958 311.003,347.939 310.860 C 347.790 309.716,348.094 308.800,348.624 308.800 C 348.967 308.800,349.140 308.626,349.008 308.413 C 348.877 308.200,349.136 307.797,349.584 307.517 C 350.033 307.237,350.400 306.770,350.400 306.480 C 350.400 306.190,350.580 306.064,350.800 306.200 C 351.020 306.336,351.200 306.167,351.200 305.824 C 351.200 305.481,351.391 305.200,351.624 305.200 C 351.857 305.200,351.937 305.022,351.802 304.803 C 351.667 304.585,351.998 303.966,352.536 303.428 C 353.075 302.889,353.415 302.349,353.293 302.227 C 353.172 302.105,353.461 301.668,353.936 301.256 C 354.411 300.843,354.800 300.294,354.800 300.034 C 354.800 299.774,355.214 299.165,355.720 298.681 C 356.246 298.178,356.579 297.457,356.499 297.000 C 356.382 296.342,356.431 296.306,356.772 296.800 C 357.116 297.296,357.189 297.248,357.194 296.523 C 357.197 296.040,357.515 295.410,357.900 295.123 C 358.285 294.835,358.661 294.240,358.737 293.800 C 358.812 293.360,359.037 292.940,359.237 292.867 C 359.436 292.793,359.600 292.422,359.600 292.042 C 359.600 291.662,359.915 290.993,360.300 290.555 C 361.052 289.700,361.388 289.149,363.200 285.800 C 365.014 282.447,366.307 279.691,366.439 278.897 C 366.466 278.734,366.823 278.130,367.232 277.555 C 367.641 276.980,367.862 276.395,367.722 276.255 C 367.581 276.115,367.687 276.000,367.957 276.000 C 368.227 276.000,368.335 275.819,368.198 275.597 C 368.061 275.376,368.246 275.081,368.608 274.942 C 369.137 274.739,369.162 274.619,368.734 274.337 C 368.307 274.056,368.342 273.902,368.908 273.568 C 369.298 273.339,369.520 272.994,369.402 272.803 C 369.284 272.612,369.373 272.340,369.600 272.200 C 369.827 272.060,369.909 271.777,369.783 271.572 C 369.656 271.368,369.724 271.200,369.933 271.200 C 370.299 271.200,371.001 269.318,370.866 268.700 C 370.830 268.535,371.010 268.400,371.267 268.400 C 371.523 268.400,371.620 268.286,371.481 268.147 C 371.342 268.008,371.439 267.513,371.696 267.047 C 371.953 266.581,372.116 265.885,372.057 265.500 C 371.998 265.115,372.129 264.800,372.348 264.800 C 372.567 264.800,372.872 264.395,373.027 263.900 C 373.181 263.405,373.509 262.868,373.754 262.706 C 374.077 262.493,374.073 262.411,373.737 262.406 C 373.473 262.403,373.364 262.058,373.484 261.600 C 373.599 261.160,373.807 260.800,373.947 260.800 C 374.086 260.800,374.227 260.326,374.261 259.747 C 374.294 259.169,374.483 258.584,374.680 258.448 C 374.877 258.311,375.067 257.753,375.101 257.206 C 375.136 256.659,375.352 256.149,375.582 256.073 C 375.812 255.996,376.000 255.498,376.000 254.967 C 376.000 254.435,376.180 254.000,376.400 254.000 C 376.620 254.000,376.800 253.278,376.800 252.395 C 376.800 251.512,376.967 250.477,377.171 250.095 C 377.743 249.022,378.091 247.912,378.258 246.620 C 378.342 245.971,378.552 245.341,378.725 245.220 C 378.897 245.099,379.080 244.377,379.132 243.616 C 379.183 242.854,379.355 242.134,379.513 242.016 C 379.671 241.897,379.821 241.178,379.847 240.418 C 379.872 239.658,380.097 238.968,380.347 238.884 C 380.596 238.801,380.800 238.558,380.800 238.343 C 380.800 238.128,380.620 238.064,380.400 238.200 C 380.180 238.336,380.000 238.257,380.000 238.024 C 380.000 237.791,380.180 237.600,380.400 237.600 C 380.620 237.600,380.779 237.465,380.753 237.300 C 380.604 236.359,380.847 234.782,381.114 234.947 C 381.287 235.054,381.429 234.808,381.429 234.400 C 381.429 233.992,381.269 233.757,381.074 233.878 C 380.880 233.998,380.935 233.695,381.198 233.203 C 381.461 232.712,381.596 231.890,381.497 231.375 C 381.391 230.820,381.538 230.356,381.859 230.233 C 382.157 230.118,382.400 229.829,382.400 229.589 C 382.400 229.349,382.248 229.247,382.062 229.361 C 381.877 229.476,381.978 228.632,382.288 227.485 C 382.758 225.742,382.998 223.371,383.218 218.291 C 383.235 217.902,383.417 217.687,383.623 217.814 C 383.854 217.957,383.858 217.680,383.634 217.089 C 383.434 216.564,383.416 215.897,383.595 215.608 C 383.773 215.320,383.860 213.772,383.787 212.168 C 383.689 210.000,383.801 209.131,384.227 208.777 C 384.814 208.290,385.007 206.740,384.538 206.272 C 384.198 205.931,384.230 202.198,384.579 201.634 C 384.726 201.396,384.635 201.200,384.375 201.200 C 384.022 201.200,384.029 201.047,384.400 200.600 C 384.797 200.121,384.797 199.879,384.400 199.400 C 384.040 198.966,384.030 198.800,384.365 198.800 C 384.673 198.800,384.711 198.566,384.477 198.100 C 384.284 197.715,384.249 196.950,384.400 196.400 C 384.551 195.850,384.522 195.096,384.336 194.724 C 384.132 194.316,384.164 193.946,384.418 193.789 C 384.707 193.610,384.692 193.351,384.370 192.964 C 384.034 192.559,384.028 192.400,384.351 192.400 C 384.598 192.400,384.800 192.119,384.800 191.776 C 384.800 191.433,384.620 191.264,384.400 191.400 C 383.932 191.690,383.898 191.494,383.777 187.800 C 383.727 186.260,383.601 184.505,383.498 183.900 C 383.387 183.248,383.491 182.798,383.755 182.794 C 384.041 182.790,384.057 182.683,383.800 182.494 C 383.352 182.165,383.157 180.928,383.202 178.704 C 383.218 177.881,383.038 176.846,382.802 176.404 C 382.475 175.793,382.495 175.599,382.886 175.594 C 383.247 175.590,383.222 175.473,382.800 175.200 C 382.470 174.987,382.357 174.809,382.549 174.806 C 382.741 174.803,382.730 174.575,382.524 174.300 C 382.319 174.025,382.162 172.857,382.175 171.705 C 382.189 170.552,382.020 169.540,381.800 169.456 C 381.579 169.371,381.421 168.694,381.448 167.951 C 381.475 167.208,381.318 166.375,381.100 166.100 C 380.821 165.750,380.867 165.598,381.251 165.594 C 381.643 165.590,381.666 165.503,381.333 165.291 C 381.077 165.128,380.790 164.455,380.697 163.797 C 380.603 163.139,380.414 162.330,380.277 162.000 C 380.140 161.670,379.967 160.676,379.893 159.791 C 379.820 158.906,379.652 158.006,379.520 157.791 C 379.388 157.576,379.218 156.860,379.142 156.200 C 379.065 155.540,378.885 154.910,378.741 154.800 C 378.597 154.690,378.356 153.970,378.207 153.200 C 378.057 152.430,377.839 151.305,377.722 150.700 C 377.605 150.095,377.389 149.600,377.242 149.600 C 377.095 149.600,376.938 149.161,376.894 148.625 C 376.849 148.088,376.550 146.885,376.228 145.952 C 375.906 145.018,375.734 144.107,375.845 143.927 C 375.956 143.747,375.857 143.600,375.624 143.600 C 375.391 143.600,375.200 143.276,375.200 142.880 C 375.200 142.484,375.021 141.981,374.802 141.762 C 374.584 141.544,374.364 140.833,374.315 140.182 C 374.265 139.532,373.994 138.762,373.713 138.471 C 373.431 138.181,373.178 137.596,373.150 137.171 C 373.123 136.747,373.055 136.220,373.000 136.000 C 372.945 135.780,372.878 135.409,372.850 135.176 C 372.822 134.943,372.605 134.873,372.367 135.020 C 372.106 135.182,371.979 134.994,372.047 134.544 C 372.108 134.135,371.851 133.220,371.475 132.512 C 371.099 131.804,370.813 131.084,370.839 130.912 C 370.932 130.303,370.301 128.800,369.953 128.800 C 369.759 128.800,369.600 128.440,369.600 128.000 C 369.600 127.560,369.409 127.200,369.176 127.200 C 368.930 127.200,368.831 126.700,368.939 126.012 C 369.059 125.250,368.962 124.856,368.667 124.912 C 368.415 124.961,368.034 124.415,367.821 123.700 C 367.609 122.985,367.292 122.400,367.117 122.400 C 366.943 122.400,366.800 122.187,366.800 121.926 C 366.800 121.313,365.275 118.100,364.346 116.755 C 363.949 116.180,363.713 115.621,363.821 115.512 C 363.930 115.403,363.745 115.086,363.410 114.808 C 363.074 114.530,362.800 114.052,362.800 113.746 C 362.800 113.089,361.970 111.525,361.400 111.106 C 361.180 110.944,361.126 110.809,361.281 110.806 C 361.435 110.803,361.120 110.324,360.581 109.742 C 360.041 109.159,359.600 108.448,359.600 108.162 C 359.600 107.875,359.054 106.831,358.387 105.843 C 357.720 104.855,356.983 103.496,356.748 102.823 C 356.514 102.150,356.162 101.600,355.966 101.600 C 355.550 101.600,353.481 98.466,353.344 97.630 C 353.292 97.316,352.969 96.902,352.625 96.710 C 352.281 96.518,352.000 96.198,352.000 96.001 C 352.000 95.803,351.553 95.159,351.007 94.570 C 350.462 93.981,350.101 93.361,350.205 93.192 C 350.310 93.022,350.126 92.781,349.798 92.654 C 349.469 92.528,349.200 92.169,349.200 91.855 C 349.200 91.542,348.930 91.182,348.600 91.055 C 348.270 90.929,348.000 90.499,348.000 90.101 C 348.000 89.359,346.703 88.000,345.995 88.000 C 345.778 88.000,345.621 87.865,345.647 87.700 C 345.773 86.903,345.560 86.378,345.200 86.600 C 344.980 86.736,344.800 86.665,344.800 86.441 C 344.800 86.218,344.350 85.372,343.800 84.562 C 343.250 83.751,342.800 83.217,342.800 83.375 C 342.800 83.532,342.142 82.792,341.339 81.731 C 340.535 80.669,339.635 79.656,339.339 79.480 C 339.042 79.304,338.800 78.899,338.800 78.580 C 338.800 78.261,338.573 78.000,338.295 78.000 C 338.017 78.000,337.444 77.539,337.021 76.976 C 336.598 76.413,335.836 75.468,335.327 74.876 C 334.818 74.284,334.401 73.665,334.400 73.500 C 334.400 73.335,334.265 73.237,334.100 73.283 C 333.564 73.431,331.131 70.835,331.399 70.401 C 331.542 70.170,331.511 70.023,331.330 70.075 C 330.847 70.214,329.092 69.175,329.359 68.908 C 329.570 68.697,327.210 66.241,326.503 65.937 C 326.328 65.862,325.795 65.296,325.319 64.679 C 324.842 64.063,324.348 63.572,324.220 63.587 C 323.679 63.653,321.652 61.839,321.871 61.484 C 322.003 61.271,321.883 61.172,321.605 61.265 C 321.326 61.358,320.446 60.832,319.649 60.096 C 318.852 59.359,317.478 58.083,316.595 57.258 C 315.712 56.433,314.182 55.275,313.195 54.683 C 312.208 54.092,311.580 53.604,311.800 53.600 C 312.020 53.596,311.120 52.895,309.800 52.042 C 308.480 51.189,306.801 49.929,306.070 49.241 C 305.338 48.553,304.545 48.110,304.308 48.257 C 304.061 48.409,303.991 48.338,304.145 48.089 C 304.292 47.851,304.230 47.542,304.007 47.404 C 303.783 47.266,303.594 47.388,303.586 47.676 C 303.578 47.967,303.355 47.843,303.086 47.400 C 302.819 46.960,302.332 46.541,302.004 46.468 C 301.676 46.395,301.274 46.125,301.110 45.868 C 300.946 45.611,300.809 45.533,300.806 45.696 C 300.803 45.859,300.449 45.692,300.020 45.325 C 299.592 44.958,299.356 44.464,299.497 44.229 C 299.638 43.993,299.415 44.070,299.002 44.400 C 298.326 44.940,298.275 44.934,298.496 44.344 C 298.677 43.859,298.451 43.630,297.626 43.465 C 297.013 43.343,295.954 42.773,295.273 42.200 C 294.592 41.627,293.937 41.168,293.818 41.179 C 292.987 41.259,292.789 41.137,293.041 40.700 C 293.199 40.425,293.187 40.328,293.013 40.484 C 292.725 40.744,290.468 39.816,290.000 39.244 C 289.254 38.334,274.998 31.371,273.090 30.985 C 272.699 30.907,271.913 30.475,271.343 30.026 C 270.773 29.578,270.147 29.309,269.953 29.429 C 269.759 29.549,269.600 29.427,269.600 29.157 C 269.600 28.887,269.495 28.772,269.366 28.901 C 269.058 29.209,266.800 28.415,266.800 27.998 C 266.800 27.820,266.412 27.776,265.937 27.900 C 265.295 28.068,265.158 27.992,265.399 27.601 C 265.618 27.247,265.568 27.173,265.244 27.373 C 264.981 27.536,264.307 27.369,263.748 27.003 C 263.188 26.636,262.633 26.433,262.515 26.552 C 262.396 26.671,261.790 26.505,261.169 26.184 C 260.548 25.863,259.671 25.600,259.220 25.600 C 258.769 25.600,258.400 25.420,258.400 25.200 C 258.400 24.980,257.871 24.800,257.224 24.800 C 256.577 24.800,255.936 24.620,255.800 24.400 C 255.664 24.180,255.113 24.000,254.576 24.000 C 254.039 24.000,253.600 23.820,253.600 23.600 C 253.600 23.380,253.161 23.200,252.624 23.200 C 252.087 23.200,251.553 23.048,251.438 22.861 C 251.323 22.675,250.670 22.507,249.987 22.487 C 249.303 22.468,248.497 22.246,248.193 21.995 C 247.890 21.743,247.228 21.587,246.721 21.648 C 246.215 21.709,245.377 21.527,244.859 21.244 C 244.342 20.960,243.577 20.817,243.159 20.927 C 242.742 21.036,242.400 20.951,242.400 20.739 C 242.400 20.527,242.232 20.456,242.028 20.583 C 241.823 20.709,241.542 20.630,241.404 20.407 C 241.266 20.183,240.638 20.000,240.010 20.000 C 239.381 20.000,238.784 19.775,238.683 19.500 C 238.545 19.124,238.379 19.113,238.013 19.457 C 237.647 19.801,237.275 19.784,236.514 19.389 C 235.958 19.101,235.165 18.930,234.751 19.009 C 234.338 19.089,234.000 18.998,234.000 18.806 C 234.000 18.615,233.201 18.503,232.224 18.559 C 231.246 18.614,230.481 18.496,230.524 18.298 C 230.566 18.099,229.610 17.906,228.400 17.869 C 227.190 17.831,226.093 17.654,225.961 17.475 C 225.830 17.297,224.390 17.055,222.761 16.938 C 221.133 16.821,219.498 16.704,219.129 16.677 C 218.761 16.650,218.535 16.505,218.628 16.354 C 218.722 16.203,218.123 16.162,217.299 16.263 C 216.475 16.364,215.620 16.428,215.400 16.406 C 214.742 16.340,208.701 15.952,207.300 15.886 C 206.585 15.852,206.000 15.674,206.000 15.489 C 206.000 15.304,205.808 15.272,205.573 15.417 C 204.970 15.789,201.636 15.864,201.861 15.500 C 202.166 15.008,201.000 15.160,200.480 15.680 C 200.107 16.053,199.893 16.053,199.520 15.680 C 199.000 15.160,197.834 15.008,198.139 15.500 C 198.364 15.864,195.030 15.789,194.427 15.417 C 194.192 15.272,194.000 15.304,194.000 15.489 M275.340 127.874 C 275.491 128.024,276.106 128.189,276.707 128.240 C 278.673 128.407,280.925 129.483,281.756 130.653 C 282.205 131.284,282.695 131.890,282.846 132.000 C 282.997 132.110,283.183 132.560,283.260 133.000 C 283.337 133.440,283.557 133.914,283.749 134.054 C 283.941 134.194,284.150 135.004,284.213 135.854 C 284.276 136.704,284.358 137.400,284.395 137.400 C 284.744 137.400,284.641 139.053,284.278 139.284 C 283.921 139.511,283.932 139.589,284.324 139.594 C 284.612 139.597,284.752 139.754,284.636 139.943 C 284.519 140.131,284.331 141.023,284.218 141.926 C 284.104 142.828,283.856 144.261,283.665 145.109 C 283.474 145.958,283.353 147.766,283.396 149.126 C 283.439 150.487,283.353 151.600,283.204 151.600 C 283.055 151.600,282.910 151.825,282.881 152.100 C 282.852 152.375,282.740 153.500,282.632 154.600 C 282.524 155.700,282.428 156.645,282.418 156.700 C 282.408 156.755,282.430 156.845,282.468 156.900 C 282.505 156.955,282.318 157.405,282.054 157.900 C 281.719 158.525,281.706 158.800,282.010 158.800 C 282.259 158.800,282.313 159.015,282.136 159.300 C 281.826 159.797,281.742 160.334,281.490 163.410 C 281.418 164.296,281.238 165.215,281.091 165.453 C 280.944 165.691,280.893 166.438,280.979 167.113 C 281.081 167.921,280.939 168.415,280.561 168.560 C 280.110 168.733,280.031 169.384,280.192 171.612 C 280.305 173.170,280.255 174.358,280.082 174.251 C 279.909 174.144,279.733 174.538,279.692 175.128 C 279.526 177.481,279.365 178.619,279.143 179.000 C 278.585 179.959,278.372 181.665,278.846 181.372 C 279.171 181.170,279.218 181.247,278.992 181.613 C 278.809 181.909,278.609 182.792,278.547 183.575 C 278.484 184.359,278.336 185.585,278.217 186.300 C 277.806 188.762,277.584 190.202,277.506 190.900 C 277.464 191.285,277.323 191.600,277.195 191.600 C 277.066 191.600,277.034 192.229,277.124 192.998 C 277.214 193.767,277.149 194.712,276.980 195.098 C 276.811 195.484,276.699 195.926,276.730 196.080 C 276.761 196.234,276.595 197.314,276.360 198.480 C 276.125 199.646,275.850 201.500,275.749 202.600 C 275.648 203.700,275.288 206.040,274.948 207.800 C 274.166 211.845,274.113 212.229,274.051 214.324 C 274.023 215.272,273.865 215.964,273.700 215.862 C 273.535 215.760,273.368 216.334,273.328 217.138 C 273.214 219.472,272.320 224.565,271.954 224.970 C 271.770 225.174,271.817 225.579,272.058 225.870 C 272.381 226.259,272.372 226.400,272.025 226.400 C 271.765 226.400,271.657 226.568,271.784 226.773 C 271.911 226.979,271.746 227.924,271.418 228.873 C 271.065 229.896,270.979 230.654,271.208 230.732 C 271.448 230.815,271.434 231.163,271.169 231.657 C 270.936 232.093,270.792 232.934,270.850 233.525 C 270.908 234.116,270.740 234.993,270.477 235.474 C 269.895 236.540,269.868 236.929,270.400 236.600 C 270.620 236.464,270.800 236.533,270.800 236.753 C 270.800 236.973,270.605 237.273,270.368 237.420 C 270.130 237.567,270.041 238.108,270.170 238.622 C 270.332 239.269,270.188 239.684,269.702 239.967 C 269.228 240.243,269.178 240.380,269.549 240.388 C 269.991 240.398,270.001 240.517,269.602 240.998 C 269.329 241.327,269.201 241.960,269.317 242.405 C 269.434 242.850,269.275 243.468,268.964 243.778 C 268.295 244.448,268.215 244.962,268.840 244.575 C 269.132 244.395,269.119 244.604,268.801 245.198 C 268.538 245.689,268.399 246.611,268.492 247.246 C 268.585 247.881,268.502 248.400,268.307 248.400 C 268.112 248.400,268.064 248.580,268.200 248.800 C 268.336 249.020,268.212 249.214,267.924 249.232 C 267.525 249.256,267.519 249.311,267.897 249.464 C 268.233 249.600,268.276 249.885,268.029 250.346 C 267.828 250.721,267.576 251.651,267.469 252.414 C 267.361 253.176,267.242 253.800,267.204 253.800 C 267.166 253.800,267.082 254.790,267.017 256.000 C 266.953 257.210,266.738 258.168,266.539 258.130 C 266.341 258.091,266.202 258.721,266.231 259.530 C 266.259 260.338,266.144 261.180,265.975 261.401 C 265.805 261.621,265.593 262.803,265.502 264.028 C 265.411 265.252,265.208 266.463,265.050 266.719 C 264.892 266.974,264.709 267.790,264.642 268.532 C 264.576 269.273,264.386 270.099,264.220 270.367 C 264.055 270.635,263.865 271.538,263.798 272.374 C 263.730 273.210,263.358 274.503,262.969 275.247 C 262.581 275.991,262.242 277.016,262.217 277.523 C 262.192 278.031,261.978 278.571,261.742 278.723 C 261.506 278.876,261.361 279.307,261.419 279.683 C 261.477 280.058,261.273 280.573,260.966 280.828 C 260.660 281.082,260.513 281.460,260.641 281.666 C 260.955 282.174,258.855 286.404,258.156 286.672 C 257.850 286.790,257.600 287.235,257.600 287.661 C 257.600 288.105,257.087 288.729,256.403 289.119 C 255.744 289.493,255.204 289.935,255.203 290.100 C 255.201 290.265,254.829 290.400,254.376 290.400 C 253.902 290.400,253.663 290.578,253.813 290.821 C 253.989 291.106,252.897 291.218,250.437 291.168 C 248.436 291.128,246.800 290.939,246.800 290.747 C 246.800 290.556,246.125 290.397,245.300 290.394 C 244.226 290.389,243.966 290.283,244.384 290.018 C 244.804 289.753,244.584 289.660,243.605 289.687 C 242.828 289.710,242.169 289.508,242.073 289.218 C 241.940 288.819,241.829 288.827,241.558 289.255 C 241.305 289.654,241.211 289.666,241.206 289.300 C 241.203 289.025,240.840 288.800,240.400 288.800 C 239.960 288.800,239.600 288.620,239.600 288.400 C 239.600 288.180,239.345 288.000,239.032 288.000 C 238.130 288.000,236.005 286.651,236.003 286.076 C 236.001 285.788,235.812 285.669,235.582 285.811 C 235.035 286.149,233.104 284.879,233.411 284.382 C 233.541 284.172,233.275 284.000,232.820 284.000 C 232.365 284.000,231.684 283.640,231.307 283.200 C 230.930 282.760,230.302 282.400,229.911 282.400 C 229.520 282.400,229.200 282.119,229.200 281.776 C 229.200 281.433,229.035 281.255,228.832 281.380 C 228.630 281.505,228.225 281.375,227.932 281.091 C 227.640 280.806,226.770 280.138,226.000 279.606 C 225.230 279.074,224.490 278.479,224.355 278.285 C 224.221 278.091,223.996 277.947,223.855 277.966 C 223.066 278.072,222.811 277.947,222.900 277.500 C 222.956 277.221,222.691 277.052,222.300 277.118 C 221.885 277.187,221.600 276.984,221.600 276.618 C 221.600 276.278,221.344 276.000,221.031 276.000 C 220.718 276.000,219.927 275.550,219.273 275.000 C 218.619 274.450,217.885 274.000,217.642 274.000 C 217.399 274.000,217.200 273.848,217.200 273.663 C 217.200 273.478,216.525 272.983,215.700 272.563 C 214.875 272.143,214.110 271.690,214.000 271.556 C 213.890 271.422,213.215 271.012,212.500 270.646 C 211.785 270.279,211.200 269.804,211.200 269.590 C 211.200 269.375,210.932 269.200,210.603 269.200 C 210.275 269.200,209.782 268.840,209.507 268.400 C 209.232 267.960,208.701 267.600,208.326 267.600 C 207.952 267.600,207.410 267.285,207.123 266.900 C 206.835 266.515,206.375 266.182,206.100 266.160 C 204.961 266.069,204.800 265.972,204.800 265.376 C 204.800 265.033,204.618 264.865,204.397 265.002 C 204.175 265.139,203.826 264.835,203.622 264.326 C 203.418 263.817,203.239 263.659,203.225 263.975 C 203.207 264.389,202.974 264.309,202.397 263.689 C 201.899 263.154,201.343 262.924,200.932 263.082 C 200.518 263.240,200.367 263.176,200.531 262.912 C 200.678 262.674,200.178 262.196,199.396 261.825 C 198.628 261.461,198.000 261.009,198.000 260.820 C 198.000 260.632,197.458 260.289,196.795 260.058 C 196.132 259.827,195.483 259.359,195.352 259.019 C 195.221 258.679,194.898 258.400,194.633 258.400 C 194.368 258.400,193.802 258.085,193.375 257.700 C 192.949 257.315,192.111 256.748,191.514 256.440 C 190.916 256.132,190.522 255.727,190.637 255.540 C 190.753 255.353,190.522 255.194,190.124 255.187 C 189.350 255.174,187.895 254.239,188.189 253.944 C 188.286 253.847,187.968 253.738,187.483 253.702 C 186.997 253.666,186.301 253.268,185.936 252.818 C 185.571 252.368,185.070 252.000,184.823 252.000 C 184.577 252.000,184.283 251.761,184.171 251.468 C 184.059 251.176,183.344 250.692,182.583 250.393 C 181.823 250.095,181.200 249.614,181.200 249.325 C 181.200 249.036,180.949 248.800,180.642 248.800 C 180.335 248.800,179.242 248.004,178.212 247.032 C 177.182 246.059,176.218 245.274,176.070 245.286 C 174.775 245.393,172.932 237.392,173.897 235.848 C 174.051 235.602,174.230 235.058,174.295 234.639 C 174.360 234.221,174.726 233.650,175.107 233.371 C 175.488 233.093,175.800 232.715,175.801 232.532 C 175.802 231.870,177.671 229.596,178.031 229.819 C 178.234 229.944,178.400 229.805,178.400 229.509 C 178.400 229.212,179.304 228.167,180.410 227.185 C 184.074 223.931,184.730 223.264,184.497 223.031 C 184.371 222.904,184.572 222.800,184.946 222.800 C 185.319 222.800,185.717 222.561,185.829 222.268 C 186.055 221.678,192.000 215.481,192.000 215.835 C 192.000 215.957,192.270 215.787,192.600 215.457 C 192.930 215.127,193.200 214.730,193.200 214.575 C 193.200 214.237,194.810 212.800,195.189 212.800 C 195.554 212.800,197.502 210.954,199.306 208.899 C 200.128 207.963,200.800 207.328,200.800 207.488 C 200.800 207.647,201.082 207.375,201.427 206.882 C 201.772 206.390,202.222 206.090,202.427 206.217 C 202.632 206.344,202.800 206.264,202.800 206.040 C 202.800 205.816,203.293 205.175,203.896 204.616 C 204.499 204.057,204.867 203.600,204.714 203.600 C 204.194 203.600,206.371 201.663,207.179 201.407 C 207.622 201.266,207.959 201.027,207.928 200.876 C 207.817 200.321,208.498 199.200,208.947 199.200 C 209.200 199.200,209.637 198.833,209.917 198.384 C 210.197 197.936,210.628 197.694,210.875 197.846 C 211.136 198.007,211.213 197.944,211.059 197.695 C 210.913 197.460,211.336 196.726,211.997 196.064 C 212.659 195.403,213.200 194.941,213.200 195.037 C 213.200 195.134,215.675 192.764,218.700 189.771 C 221.725 186.777,224.822 183.849,225.582 183.264 C 227.343 181.909,234.400 174.813,234.400 174.398 C 234.400 174.226,234.670 173.982,235.000 173.855 C 235.330 173.729,235.600 173.339,235.600 172.989 C 235.600 172.639,235.755 172.449,235.945 172.566 C 236.135 172.683,236.248 172.379,236.196 171.890 C 236.144 171.400,236.079 170.523,236.051 169.940 C 235.963 168.114,230.800 166.252,230.800 168.045 C 230.800 168.240,230.564 168.400,230.275 168.400 C 229.987 168.400,229.364 168.760,228.892 169.200 C 228.420 169.640,227.846 170.000,227.617 170.000 C 227.388 170.000,227.200 170.180,227.200 170.400 C 227.200 170.620,227.000 170.800,226.756 170.800 C 226.511 170.800,225.476 171.480,224.456 172.311 C 223.435 173.142,222.111 174.069,221.514 174.371 C 220.916 174.673,220.522 175.073,220.637 175.260 C 220.753 175.447,220.543 175.600,220.171 175.600 C 219.798 175.600,219.158 175.988,218.747 176.461 C 218.336 176.935,218.000 177.196,218.000 177.042 C 218.000 176.888,217.145 177.353,216.100 178.076 C 215.055 178.798,214.065 179.347,213.900 179.295 C 213.735 179.243,213.600 179.380,213.600 179.600 C 213.600 179.820,213.195 180.003,212.700 180.006 C 211.972 180.011,211.915 180.086,212.400 180.400 C 212.752 180.627,212.805 180.790,212.529 180.794 C 212.269 180.797,211.819 181.025,211.529 181.301 C 211.238 181.576,210.336 182.151,209.524 182.579 C 208.713 183.006,208.120 183.471,208.207 183.611 C 208.294 183.752,208.136 183.867,207.856 183.867 C 207.320 183.867,204.807 185.519,204.306 186.200 C 204.139 186.428,204.010 186.438,204.006 186.224 C 204.003 186.016,203.770 186.162,203.489 186.546 C 203.208 186.930,202.713 187.285,202.389 187.335 C 202.065 187.384,201.389 187.779,200.887 188.212 C 200.385 188.646,199.894 188.959,199.796 188.909 C 199.698 188.859,199.196 189.219,198.679 189.709 C 197.154 191.156,196.018 192.000,195.595 192.000 C 195.378 192.000,195.200 192.180,195.200 192.400 C 195.200 192.620,194.930 192.800,194.600 192.800 C 194.270 192.800,194.000 192.980,194.000 193.200 C 194.000 193.420,193.730 193.600,193.400 193.600 C 193.070 193.600,192.799 193.735,192.797 193.900 C 192.795 194.191,190.599 195.582,190.171 195.563 C 190.055 195.557,189.331 196.104,188.565 196.777 C 187.798 197.451,186.592 198.275,185.885 198.609 C 183.666 199.658,181.584 201.050,181.844 201.311 C 181.982 201.448,181.623 201.679,181.047 201.824 C 180.471 201.968,180.000 202.247,180.000 202.443 C 180.000 202.640,179.730 202.800,179.400 202.800 C 179.070 202.800,178.800 202.980,178.800 203.200 C 178.800 203.420,178.530 203.600,178.200 203.600 C 177.870 203.600,177.600 203.780,177.600 204.000 C 177.600 204.220,177.330 204.400,177.000 204.400 C 176.670 204.400,176.400 204.550,176.400 204.732 C 176.400 204.915,175.905 205.319,175.300 205.630 C 174.695 205.941,173.840 206.581,173.400 207.053 C 172.960 207.525,172.240 208.020,171.800 208.153 C 171.360 208.286,170.477 208.846,169.838 209.398 C 168.594 210.471,167.792 210.718,168.206 209.900 C 168.345 209.625,168.176 209.749,167.830 210.176 C 167.483 210.604,167.200 211.099,167.200 211.276 C 167.200 211.454,166.883 211.600,166.496 211.600 C 166.109 211.600,165.563 211.967,165.283 212.416 C 165.003 212.864,164.612 213.131,164.415 213.009 C 164.217 212.887,163.567 213.240,162.969 213.793 C 162.372 214.347,161.558 214.800,161.161 214.800 C 160.765 214.800,160.281 215.083,160.088 215.429 C 159.745 216.042,158.679 216.764,156.955 217.552 C 156.490 217.765,156.000 218.223,155.867 218.569 C 155.734 218.916,155.349 219.200,155.013 219.200 C 154.676 219.200,154.400 219.358,154.400 219.551 C 154.400 219.745,153.815 220.140,153.100 220.429 C 152.385 220.719,151.530 221.244,151.200 221.596 C 150.344 222.509,147.760 223.949,146.700 224.104 C 146.205 224.177,145.395 224.459,144.900 224.732 C 144.405 225.005,144.000 225.125,144.000 225.000 C 144.000 224.875,143.660 224.954,143.245 225.176 C 142.829 225.399,141.884 225.621,141.145 225.671 C 140.405 225.721,139.710 225.888,139.600 226.043 C 139.296 226.470,136.253 226.603,135.627 226.217 C 135.308 226.020,135.171 226.029,135.300 226.238 C 135.554 226.647,128.317 226.467,128.000 226.056 C 127.890 225.914,127.260 225.735,126.600 225.660 C 125.940 225.584,125.220 225.398,125.000 225.246 C 124.780 225.094,124.060 224.915,123.400 224.847 C 122.740 224.779,122.140 224.561,122.067 224.362 C 121.993 224.163,121.408 224.000,120.767 224.000 C 120.125 224.000,119.600 223.857,119.600 223.682 C 119.600 223.507,118.925 223.318,118.101 223.263 C 117.276 223.207,116.430 222.990,116.221 222.781 C 116.011 222.571,115.336 222.400,114.720 222.400 C 114.104 222.400,113.600 222.220,113.600 222.000 C 113.600 221.780,113.150 221.600,112.600 221.600 C 112.050 221.600,111.600 221.409,111.600 221.176 C 111.600 220.943,111.416 220.867,111.191 221.006 C 110.753 221.276,106.852 220.135,106.220 219.551 C 106.011 219.358,105.366 219.200,104.787 219.200 C 104.207 219.200,103.598 219.065,103.433 218.900 C 103.132 218.598,102.924 218.542,101.776 218.450 C 101.433 218.423,101.248 218.246,101.364 218.058 C 101.481 217.870,101.160 217.795,100.651 217.892 C 100.131 217.992,99.450 217.793,99.095 217.438 C 98.714 217.057,98.408 216.976,98.323 217.232 C 98.240 217.479,97.746 217.316,97.144 216.841 C 96.573 216.393,95.726 216.099,95.262 216.188 C 94.797 216.278,94.311 216.179,94.181 215.969 C 94.051 215.759,93.777 215.691,93.572 215.817 C 93.368 215.944,93.200 215.857,93.200 215.624 C 93.200 215.391,93.065 215.226,92.900 215.257 C 92.399 215.353,90.020 214.349,90.075 214.065 C 90.191 213.471,89.478 212.400,88.967 212.400 C 88.667 212.400,88.141 211.860,87.800 211.200 C 87.326 210.284,87.300 209.999,87.690 209.994 C 88.004 209.990,88.046 209.875,87.800 209.694 C 87.580 209.532,87.361 208.860,87.313 208.200 C 87.257 207.434,87.345 207.192,87.555 207.531 C 87.780 207.892,87.959 207.607,88.115 206.644 C 88.368 205.088,90.560 202.604,91.285 203.053 C 91.538 203.209,91.610 203.140,91.456 202.891 C 91.307 202.649,91.573 202.336,92.057 202.182 C 92.534 202.030,93.338 201.461,93.842 200.917 C 94.346 200.373,94.948 200.044,95.179 200.187 C 95.411 200.330,95.601 200.302,95.603 200.124 C 95.607 199.714,97.547 198.800,98.413 198.800 C 98.773 198.800,99.191 198.675,99.344 198.523 C 99.496 198.371,100.021 198.185,100.510 198.111 C 101.000 198.037,101.460 197.802,101.533 197.588 C 101.607 197.375,101.922 197.200,102.233 197.200 C 102.545 197.200,102.801 197.065,102.803 196.900 C 102.807 196.540,104.745 195.600,105.484 195.600 C 105.773 195.600,106.772 195.248,107.704 194.819 C 108.637 194.389,109.670 193.984,110.000 193.919 C 110.330 193.853,110.690 193.710,110.800 193.600 C 111.427 192.973,114.622 191.600,115.455 191.600 C 115.993 191.600,116.823 191.237,117.299 190.794 C 117.774 190.351,118.352 190.057,118.582 190.142 C 118.812 190.226,119.295 190.039,119.655 189.726 C 120.016 189.413,120.691 189.128,121.155 189.093 C 121.620 189.058,122.000 188.880,122.000 188.697 C 122.000 188.515,122.315 188.418,122.700 188.482 C 123.115 188.552,123.354 188.381,123.288 188.063 C 123.226 187.767,123.406 187.607,123.688 187.708 C 123.969 187.808,124.700 187.638,125.312 187.329 C 125.923 187.020,126.598 186.875,126.812 187.007 C 127.025 187.139,127.200 186.956,127.200 186.600 C 127.200 186.244,127.365 186.055,127.568 186.180 C 127.770 186.305,128.175 186.168,128.468 185.875 C 128.760 185.582,129.180 185.306,129.400 185.260 C 131.243 184.878,132.800 184.308,132.800 184.016 C 132.800 183.696,134.752 183.048,135.846 183.005 C 136.091 182.996,136.586 182.744,136.946 182.445 C 137.306 182.146,137.603 182.059,137.606 182.251 C 137.609 182.443,137.744 182.420,137.906 182.200 C 138.365 181.575,139.915 180.800,140.706 180.800 C 141.100 180.800,141.834 180.512,142.337 180.159 C 142.840 179.807,143.345 179.612,143.459 179.726 C 143.573 179.840,144.012 179.588,144.433 179.167 C 144.855 178.745,145.725 178.400,146.367 178.400 C 147.008 178.400,147.593 178.234,147.667 178.030 C 147.740 177.827,148.066 177.602,148.390 177.530 C 148.715 177.459,149.225 177.173,149.523 176.896 C 149.821 176.619,150.221 176.489,150.412 176.608 C 150.753 176.818,154.404 175.300,154.800 174.784 C 154.910 174.640,155.510 174.398,156.133 174.246 C 156.757 174.093,157.972 173.523,158.833 172.979 C 159.695 172.435,160.400 172.104,160.400 172.244 C 160.400 172.384,160.625 172.317,160.900 172.095 C 161.175 171.874,161.985 171.567,162.700 171.414 C 163.415 171.262,164.000 170.960,164.000 170.745 C 164.000 170.529,164.160 170.451,164.355 170.572 C 164.550 170.693,164.932 170.523,165.204 170.196 C 165.476 169.868,166.101 169.600,166.593 169.600 C 167.085 169.600,168.537 169.071,169.820 168.423 C 171.103 167.776,172.300 167.338,172.480 167.449 C 172.660 167.561,173.280 167.280,173.858 166.826 C 174.435 166.372,175.154 166.000,175.454 166.000 C 175.754 166.000,176.000 165.836,176.000 165.635 C 176.000 165.435,176.315 165.318,176.700 165.375 C 177.085 165.432,178.062 165.062,178.872 164.553 C 179.681 164.043,181.211 163.408,182.272 163.141 C 183.332 162.874,184.439 162.417,184.731 162.125 C 185.544 161.313,186.502 160.942,187.572 161.024 C 188.106 161.064,188.905 160.761,189.347 160.349 C 189.789 159.937,190.342 159.594,190.575 159.587 C 190.809 159.581,192.075 159.041,193.390 158.387 C 194.704 157.734,196.012 157.200,196.295 157.200 C 196.579 157.200,197.123 157.035,197.505 156.834 C 199.123 155.981,201.285 155.144,202.015 155.089 C 202.447 155.056,202.800 154.814,202.800 154.550 C 202.800 154.287,203.115 154.118,203.500 154.175 C 203.885 154.232,204.470 154.144,204.800 153.980 C 205.130 153.816,206.165 153.366,207.100 152.980 C 208.035 152.594,208.800 152.159,208.800 152.012 C 208.800 151.731,213.092 150.278,213.323 150.481 C 213.397 150.547,213.772 150.285,214.157 149.900 C 214.542 149.515,215.294 149.200,215.829 149.200 C 216.363 149.200,216.800 149.009,216.800 148.776 C 216.800 148.543,216.960 148.451,217.155 148.572 C 217.350 148.693,217.730 148.525,218.000 148.200 C 218.270 147.875,218.650 147.707,218.845 147.828 C 219.040 147.949,219.200 147.871,219.200 147.655 C 219.200 147.440,219.785 147.138,220.500 146.986 C 221.215 146.833,222.017 146.533,222.282 146.319 C 222.548 146.106,222.998 146.065,223.282 146.230 C 223.567 146.394,223.668 146.382,223.506 146.204 C 223.207 145.873,224.916 144.801,225.746 144.798 C 225.996 144.797,227.094 144.343,228.187 143.789 C 229.279 143.234,230.389 142.864,230.654 142.965 C 230.918 143.067,231.232 142.894,231.352 142.581 C 231.484 142.236,231.836 142.116,232.250 142.275 C 232.711 142.452,232.838 142.385,232.642 142.068 C 232.445 141.749,232.750 141.600,233.600 141.600 C 234.330 141.600,234.745 141.434,234.600 141.200 C 234.460 140.974,234.788 140.800,235.353 140.800 C 235.903 140.800,236.464 140.620,236.600 140.400 C 236.736 140.180,237.197 140.000,237.624 140.000 C 238.051 140.000,238.400 139.820,238.400 139.600 C 238.400 139.380,238.670 139.200,239.000 139.200 C 239.330 139.200,239.600 139.001,239.600 138.757 C 239.600 138.514,239.848 138.409,240.150 138.526 C 240.453 138.642,241.173 138.492,241.750 138.192 C 242.328 137.893,242.800 137.731,242.800 137.833 C 242.800 137.935,243.242 137.729,243.782 137.375 C 244.323 137.021,244.953 136.847,245.182 136.989 C 245.412 137.131,245.600 137.064,245.600 136.840 C 245.600 136.616,246.320 136.216,247.200 135.953 C 248.080 135.689,248.800 135.322,248.800 135.137 C 248.800 134.952,248.991 134.800,249.224 134.800 C 249.457 134.800,249.537 134.978,249.403 135.195 C 249.263 135.422,249.423 135.489,249.777 135.354 C 250.117 135.223,250.297 134.957,250.177 134.763 C 250.057 134.568,250.238 134.516,250.579 134.647 C 250.921 134.778,251.200 134.700,251.200 134.474 C 251.200 134.007,253.921 132.982,254.732 133.144 C 255.024 133.202,255.583 132.880,255.975 132.429 C 256.399 131.940,257.273 131.566,258.138 131.504 C 258.936 131.447,259.676 131.175,259.782 130.900 C 259.888 130.625,260.300 130.400,260.698 130.400 C 261.096 130.400,261.810 130.128,262.285 129.796 C 262.895 129.368,263.228 129.322,263.424 129.638 C 263.592 129.911,263.798 129.936,263.950 129.703 C 264.232 129.272,270.703 127.893,271.150 128.169 C 271.308 128.267,271.700 128.182,272.019 127.980 C 272.700 127.549,274.944 127.477,275.340 127.874 " stroke="none" fill="#fc7c14" fill-rule="evenodd"></path><path id="path1" d="" stroke="none" fill="#1007c14" fill-rule="evenodd"></path><path id="path2" d="" stroke="none" fill="#1007c14" fill-rule="evenodd"></path><path id="path3" d="" stroke="none" fill="#1007c14" fill-rule="evenodd"></path><path id="path4" d="" stroke="none" fill="#1007c14" fill-rule="evenodd"></path></g></svg>